<svg width="217" height="40" viewBox="0 0 217 40" fill="none" xmlns="http://www.w3.org/2000/svg">
<g clip-path="url(#clip0_4_2)">
<path d="M49.8069 10.1288H58.3411C59.313 10.1288 60.2697 10.2196 61.2416 10.4162C62.1983 10.6129 63.0639 10.9608 63.8231 11.4449C64.5824 11.9442 65.1898 12.5947 65.6606 13.4268C66.1313 14.2588 66.3591 15.2875 66.3591 16.5432C66.3591 17.7988 66.0554 18.8124 65.4632 19.7353C64.8709 20.6581 64.0054 21.3691 62.8968 21.8683L67.9232 29.8712H60.2697L56.4733 22.8214H56.2759V29.8712H49.8069V10.1288ZM56.2152 18.4645H57.5211C57.7489 18.4645 57.9919 18.4494 58.2652 18.404C58.5386 18.3737 58.7815 18.2829 59.0093 18.1619C59.2371 18.0409 59.4345 17.8745 59.6015 17.6627C59.7534 17.4509 59.8293 17.1634 59.8293 16.8155C59.8293 16.4675 59.7686 16.1801 59.6319 15.9834C59.4952 15.7716 59.3282 15.6204 59.1308 15.5296C58.9182 15.4237 58.7056 15.3632 58.4626 15.3329C58.2197 15.3027 58.0071 15.2875 57.7945 15.2875H56.2152V18.4645Z" fill="#DB0626"/>
<path d="M67.088 19.8865C67.088 18.3132 67.3613 16.876 67.9232 15.6052C68.4851 14.3344 69.2595 13.2452 70.2314 12.3526C71.2033 11.4601 72.3726 10.7793 73.7089 10.2952C75.0452 9.81109 76.503 9.56903 78.0823 9.56903C79.6616 9.56903 81.1043 9.81109 82.4558 10.2952C83.7921 10.7793 84.9614 11.4601 85.9485 12.3526C86.9355 13.2452 87.71 14.3344 88.2718 15.6052C88.8337 16.876 89.1071 18.3132 89.1071 19.8865C89.1071 21.4599 88.8337 22.9122 88.2718 24.2132C87.71 25.5143 86.9355 26.6186 85.9485 27.5415C84.9614 28.4643 83.7921 29.1753 82.4558 29.6746C81.1195 30.1738 79.6616 30.431 78.0823 30.431C76.503 30.431 75.0604 30.1738 73.7089 29.6746C72.3574 29.1753 71.2033 28.4643 70.2314 27.5415C69.2443 26.6186 68.4851 25.5143 67.9232 24.2132C67.3613 22.9122 67.088 21.475 67.088 19.8865ZM74.1796 19.8865C74.1796 20.5371 74.2708 21.1271 74.4682 21.6717C74.6656 22.2163 74.9389 22.6701 75.2882 23.0635C75.6375 23.4568 76.0475 23.7594 76.5334 23.9712C77.0193 24.183 77.5357 24.2889 78.0975 24.2889C78.6594 24.2889 79.1757 24.183 79.6464 23.9712C80.1172 23.7594 80.5424 23.4568 80.8917 23.0635C81.2409 22.6701 81.5143 22.2012 81.7117 21.6717C81.9091 21.1271 82.0002 20.5371 82.0002 19.8865C82.0002 19.236 81.8939 18.6763 81.7117 18.1468C81.5295 17.6173 81.2409 17.1786 80.8917 16.8155C80.5424 16.4524 80.1172 16.165 79.6464 15.9683C79.1757 15.7716 78.6594 15.6657 78.0975 15.6657C77.5357 15.6657 77.0193 15.7716 76.5334 15.9683C76.0475 16.1801 75.6375 16.4524 75.2882 16.8155C74.9389 17.1786 74.6808 17.6173 74.4682 18.1468C74.2708 18.6763 74.1796 19.2511 74.1796 19.8865Z" fill="#DB0626"/>
<path d="M89.8663 19.9924C89.8663 18.4191 90.1396 16.9819 90.7015 15.696C91.2634 14.4101 92.0227 13.3209 92.9945 12.398C93.9664 11.4903 95.1053 10.7793 96.4265 10.2952C97.7476 9.79596 99.1447 9.55391 100.648 9.55391C102.151 9.55391 103.624 9.79596 104.991 10.2952C106.358 10.7944 107.497 11.4601 108.408 12.2921L104.323 17.1937C103.943 16.7096 103.488 16.3465 102.926 16.0893C102.364 15.8322 101.741 15.7111 101.043 15.7111C100.481 15.7111 99.9647 15.817 99.4788 15.9986C98.9928 16.1952 98.5676 16.4827 98.2032 16.8457C97.8387 17.224 97.5502 17.6627 97.3528 18.1922C97.1402 18.7217 97.0491 19.3117 97.0491 19.9622C97.0491 20.6127 97.1554 21.1876 97.368 21.7019C97.5806 22.2163 97.8691 22.655 98.2335 23.0332C98.598 23.4114 99.0232 23.6837 99.5091 23.8804C99.9951 24.0771 100.511 24.1678 101.043 24.1678C101.802 24.1678 102.47 24.0166 103.017 23.6989C103.564 23.3812 104.004 23.0181 104.323 22.5794L108.408 27.4658C107.512 28.3584 106.403 29.0694 105.097 29.5989C103.791 30.1284 102.303 30.3856 100.648 30.3856C99.1599 30.3856 97.7476 30.1284 96.4265 29.6292C95.1053 29.1299 93.9664 28.4189 92.9945 27.4961C92.0227 26.5732 91.2634 25.484 90.7015 24.2132C90.1396 22.9425 89.8663 21.5204 89.8663 19.9622" fill="#DB0626"/>
<path d="M115.712 22.0045H115.667V29.8712H109.198V10.1288H115.636V17.4055H115.682L120.982 10.1288H128.817L121.376 19.1604L129.182 29.8712H121.012L115.712 22.0045Z" fill="#DB0626"/>
<path d="M140.753 29.8712H134.041L128.635 10.1288H135.681L137.822 21.233H137.929L140.222 10.1288H147.192L149.682 21.233H149.804L151.96 10.1288H158.778L153.266 29.8712H146.554L143.745 18.7217H143.638L140.753 29.8712Z" fill="#DB0626"/>
<path d="M157.731 19.8865C157.731 18.3132 158.004 16.876 158.566 15.6052C159.128 14.3344 159.902 13.2452 160.874 12.3526C161.846 11.4601 163.015 10.7793 164.351 10.2952C165.688 9.81109 167.146 9.56903 168.725 9.56903C170.304 9.56903 171.747 9.81109 173.098 10.2952C174.435 10.7793 175.604 11.4601 176.591 12.3526C177.578 13.2452 178.353 14.3344 178.914 15.6052C179.476 16.876 179.75 18.3132 179.75 19.8865C179.75 21.4599 179.476 22.9122 178.914 24.2132C178.353 25.5143 177.578 26.6186 176.591 27.5415C175.604 28.4643 174.435 29.1753 173.098 29.6746C171.762 30.1738 170.304 30.431 168.725 30.431C167.146 30.431 165.703 30.1738 164.351 29.6746C163 29.1753 161.846 28.4643 160.874 27.5415C159.887 26.6186 159.128 25.5143 158.566 24.2132C158.004 22.9122 157.731 21.475 157.731 19.8865ZM164.822 19.8865C164.822 20.5371 164.913 21.1271 165.111 21.6717C165.308 22.2163 165.582 22.6701 165.916 23.0635C166.265 23.4568 166.675 23.7594 167.161 23.9712C167.647 24.183 168.163 24.2889 168.725 24.2889C169.287 24.2889 169.803 24.183 170.274 23.9712C170.745 23.7594 171.17 23.4568 171.519 23.0635C171.868 22.6701 172.142 22.2012 172.339 21.6717C172.537 21.1271 172.628 20.5371 172.628 19.8865C172.628 19.236 172.521 18.6763 172.339 18.1468C172.157 17.6173 171.868 17.1786 171.519 16.8155C171.17 16.4524 170.745 16.165 170.274 15.9683C169.803 15.7716 169.287 15.6657 168.725 15.6657C168.163 15.6657 167.647 15.7716 167.161 15.9683C166.675 16.1801 166.265 16.4524 165.916 16.8155C165.566 17.1786 165.308 17.6173 165.111 18.1468C164.913 18.6763 164.822 19.2511 164.822 19.8865Z" fill="#DB0626"/>
<path d="M180.509 19.8865C180.509 18.3132 180.782 16.876 181.344 15.6052C181.906 14.3344 182.68 13.2452 183.652 12.3526C184.624 11.4601 185.793 10.7793 187.13 10.2952C188.481 9.81109 189.924 9.56903 191.503 9.56903C193.083 9.56903 194.525 9.81109 195.877 10.2952C197.228 10.7793 198.382 11.4601 199.369 12.3526C200.356 13.2452 201.131 14.3344 201.693 15.6052C202.255 16.876 202.528 18.3132 202.528 19.8865C202.528 21.4599 202.255 22.9122 201.693 24.2132C201.131 25.5143 200.356 26.6186 199.369 27.5415C198.382 28.4643 197.213 29.1753 195.877 29.6746C194.54 30.1738 193.083 30.431 191.503 30.431C189.924 30.431 188.481 30.1738 187.13 29.6746C185.793 29.1753 184.624 28.4643 183.652 27.5415C182.68 26.6186 181.906 25.5143 181.344 24.2132C180.782 22.9122 180.509 21.475 180.509 19.8865ZM187.585 19.8865C187.585 20.5371 187.692 21.1271 187.874 21.6717C188.071 22.2163 188.345 22.6701 188.679 23.0635C189.028 23.4568 189.438 23.7594 189.924 23.9712C190.41 24.183 190.926 24.2889 191.488 24.2889C192.05 24.2889 192.566 24.183 193.037 23.9712C193.508 23.7594 193.933 23.4568 194.282 23.0635C194.631 22.6701 194.92 22.2012 195.102 21.6717C195.3 21.1271 195.391 20.5371 195.391 19.8865C195.391 19.236 195.3 18.6763 195.102 18.1468C194.905 17.6173 194.631 17.1786 194.282 16.8155C193.933 16.4524 193.508 16.165 193.037 15.9683C192.566 15.7565 192.05 15.6657 191.488 15.6657C190.926 15.6657 190.41 15.7716 189.924 15.9683C189.438 16.1801 189.028 16.4524 188.679 16.8155C188.329 17.1786 188.071 17.6173 187.874 18.1468C187.677 18.6763 187.585 19.2511 187.585 19.8865Z" fill="#DB0626"/>
<path d="M203.697 10.1288H210.409V24.1527H216.985V29.8712H203.697V10.1288Z" fill="#DB0626"/>
<path d="M0.256348 39.75H39.9059V0.25H0.256348V39.75ZM18.5853 22.4583L14.1208 29.8712H4.21978L16.0949 10.1288H18.5853V22.4583ZM26.0263 29.8712L21.5617 22.4583V10.1288H24.0521L35.9272 29.8712H26.0111H26.0263Z" fill="#DB0626"/>
<path d="M212.216 12.4585C212.216 12.1257 212.277 11.808 212.414 11.5206C212.535 11.2331 212.718 10.976 212.93 10.7642C213.143 10.5524 213.401 10.386 213.689 10.2649C213.978 10.1439 214.282 10.0834 214.616 10.0834C214.95 10.0834 215.254 10.1439 215.542 10.2649C215.831 10.386 216.089 10.5524 216.301 10.7642C216.514 10.976 216.696 11.218 216.818 11.5055C216.939 11.7929 217.015 12.0955 217.015 12.4283C217.015 12.7611 216.954 13.0788 216.818 13.3662C216.696 13.6537 216.514 13.9109 216.301 14.1227C216.089 14.3345 215.831 14.5009 215.542 14.6219C215.254 14.7429 214.95 14.8034 214.616 14.8034C214.282 14.8034 213.978 14.7429 213.689 14.6219C213.401 14.5009 213.143 14.3345 212.93 14.1227C212.718 13.9109 212.535 13.6688 212.414 13.3814C212.292 13.0939 212.216 12.7914 212.216 12.4585ZM212.596 12.4585C212.596 12.746 212.642 13.0032 212.748 13.2452C212.854 13.4873 212.991 13.6991 213.173 13.8806C213.355 14.0621 213.568 14.1983 213.811 14.3042C214.054 14.4101 214.312 14.4555 214.601 14.4555C214.889 14.4555 215.147 14.4101 215.39 14.3042C215.633 14.1983 215.846 14.0621 216.028 13.8806C216.21 13.6991 216.347 13.4873 216.453 13.2301C216.559 12.988 216.605 12.7157 216.605 12.4283C216.605 12.1408 216.544 11.8837 216.453 11.6416C216.347 11.3996 216.21 11.1878 216.028 11.0062C215.846 10.8247 215.633 10.6885 215.39 10.5826C215.147 10.4767 214.889 10.4313 214.601 10.4313C214.312 10.4313 214.054 10.4767 213.811 10.5826C213.568 10.6885 213.355 10.8247 213.173 11.0062C212.991 11.1878 212.854 11.3996 212.748 11.6416C212.642 11.8837 212.596 12.156 212.596 12.4434M213.72 11.097H214.722C215.056 11.097 215.299 11.1575 215.451 11.2785C215.603 11.3996 215.679 11.5962 215.679 11.8837C215.679 12.1257 215.603 12.3073 215.466 12.4283C215.329 12.5493 215.147 12.6098 214.95 12.625L215.739 13.8352H215.329L214.585 12.6552H214.099V13.8352H213.72V11.097ZM214.099 12.3073H214.844L215.087 12.2467L215.254 12.1106L215.314 11.8534L215.254 11.6265L215.117 11.4903L214.919 11.4298H214.707H214.115V12.3073H214.099Z" fill="#DB0626"/>
</g>
<defs>
<clipPath id="clip0_4_2">
<rect width="216.744" height="39.5" fill="white" transform="translate(0.256348 0.25)"/>
</clipPath>
</defs>
</svg>
